<svg viewBox="0 0 500 500" xmlns="http://www.w3.org/2000/svg">
  <!-- Background Gradient -->
  <defs>
    <linearGradient id="skyGradient" x1="0" y1="0" x2="0" y2="1">
      <stop offset="0%" stop-color="#ff0080"/>
      <stop offset="100%" stop-color="#8000ff"/>
    </linearGradient>
    <linearGradient id="sunGradient" x1="0" y1="0" x2="0" y2="1">
      <stop offset="0%" stop-color="#ffcc00"/>
      <stop offset="100%" stop-color="#ff6600"/>
    </linearGradient>
  </defs>

  <!-- Sky Background -->
  <rect width="100%" height="100%" fill="url(#skyGradient)"/>

  <!-- Sun -->
  <circle cx="250" cy="180" r="100" fill="url(#sunGradient)"/>

  <!-- Sun Grid Lines -->
  <g stroke="rgba(0,0,0,0.3)" stroke-width="5">
    <line x1="150" y1="180" x2="350" y2="180"/>
    <line x1="160" y1="150" x2="340" y2="150"/>
    <line x1="170" y1="120" x2="330" y2="120"/>
    <line x1="180" y1="90" x2="320" y2="90"/>
  </g>

  <!-- Grid -->
  <g stroke="rgba(255, 0, 255, 0.7)" stroke-width="2">
    <!-- Horizontal Lines -->
    <line x1="50" y1="400" x2="450" y2="400"/>
    <line x1="75" y1="425" x2="425" y2="425"/>
    <line x1="100" y1="450" x2="400" y2="450"/>
    <line x1="125" y1="475" x2="375" y2="475"/>

    <!-- Perspective Vertical Lines -->
    <line x1="50" y1="400" x2="250" y2="500"/>
    <line x1="125" y1="400" x2="250" y2="500"/>
    <line x1="200" y1="400" x2="250" y2="500"/>
    <line x1="275" y1="400" x2="250" y2="500"/>
    <line x1="350" y1="400" x2="250" y2="500"/>
    <line x1="425" y1="400" x2="250" y2="500"/>
  </g>
</svg>
